<svg width="92" height="93" viewBox="0 0 92 93" fill="none" xmlns="http://www.w3.org/2000/svg">
<path d="M64.242 28.038V25.707C59.112 29.519 58.839 33.181 57.477 35.134C55.064 38.594 52.912 38.144 52.508 36.89C51.883 34.947 52.725 29.839 50.929 29.842C43.838 29.854 38.187 30.162 33.647 38.881C29.107 47.6 25.892 44.042 25.892 44.042C25.892 44.042 31.72 29.787 36.093 24.971C39.388 21.342 47.379 20.141 53.981 18.614C57.886 17.711 61.282 16.318 64.242 14.759V0.278992H27.759V28.037H0V64.52H27.758V69.014C33.281 65.097 33.536 61.296 34.933 59.293C37.346 55.833 39.498 56.283 39.902 57.537C40.527 59.479 39.685 64.588 41.481 64.585C48.572 64.573 54.223 64.265 58.763 55.546C63.303 46.827 66.518 50.385 66.518 50.385C66.518 50.385 60.69 64.64 56.317 69.456C53.022 73.085 45.031 74.286 38.429 75.813C34.339 76.759 30.815 78.243 27.758 79.892V92.28H64.241V64.522H92V28.039H64.242V28.038ZM46 55.482C40.35 53.592 36.728 48.731 37.468 44.639C37.959 41.922 40.522 40.383 42.82 41.178C45.108 41.969 46 43.508 46 43.508C46 43.508 46.892 41.97 49.18 41.178C51.478 40.383 54.041 41.922 54.532 44.639C55.272 48.731 51.65 53.592 46 55.482Z" fill="url(#paint0_linear_1_25)"/>
<defs>
<linearGradient id="paint0_linear_1_25" x1="13.8792" y1="78.4007" x2="78.1208" y2="14.1591" gradientUnits="userSpaceOnUse">
<stop stop-color="#0076C1"/>
<stop offset="0.0737" stop-color="#0B82C6"/>
<stop offset="0.2766" stop-color="#269ED3"/>
<stop offset="0.4546" stop-color="#36AFDA"/>
<stop offset="0.587" stop-color="#3CB5DD"/>
</linearGradient>
</defs>
</svg>
